<svg width="900" height="193" viewBox="0 0 900 193" fill="none" xmlns="http://www.w3.org/2000/svg">
<rect width="900" height="193" rx="10" fill="url(#paint0_linear)"/>
<path d="M424.74 118.06H426.45L420.06 134.98H418.35L424.74 118.06ZM429.377 133V123.1H430.907V124.81H431.051C431.207 124.21 431.519 123.748 431.987 123.424C432.467 123.088 433.061 122.92 433.769 122.92C434.261 122.92 434.705 123.004 435.101 123.172C435.509 123.34 435.851 123.58 436.127 123.892C436.415 124.192 436.637 124.558 436.793 124.99C436.949 125.41 437.027 125.884 437.027 126.412V133H435.407V126.682C435.407 125.926 435.215 125.338 434.831 124.918C434.447 124.498 433.913 124.288 433.229 124.288C432.545 124.288 431.999 124.516 431.591 124.972C431.195 125.416 430.997 126.022 430.997 126.79V133H429.377ZM441.646 129.31C441.646 130.066 441.85 130.66 442.258 131.092C442.678 131.524 443.254 131.74 443.986 131.74C444.706 131.74 445.276 131.524 445.696 131.092C446.116 130.66 446.326 130.066 446.326 129.31V126.79C446.326 126.034 446.116 125.44 445.696 125.008C445.276 124.576 444.706 124.36 443.986 124.36C443.266 124.36 442.696 124.576 442.276 125.008C441.856 125.44 441.646 126.034 441.646 126.79V129.31ZM440.026 126.79C440.026 126.19 440.116 125.656 440.296 125.188C440.488 124.708 440.752 124.3 441.088 123.964C441.436 123.628 441.85 123.37 442.33 123.19C442.822 123.01 443.374 122.92 443.986 122.92C445.21 122.92 446.176 123.262 446.884 123.946C447.592 124.63 447.946 125.572 447.946 126.772V129.31C447.946 129.91 447.856 130.45 447.676 130.93C447.496 131.41 447.232 131.818 446.884 132.154C446.548 132.478 446.134 132.73 445.642 132.91C445.15 133.09 444.598 133.18 443.986 133.18C443.374 133.18 442.822 133.09 442.33 132.91C441.85 132.73 441.436 132.472 441.088 132.136C440.752 131.8 440.488 131.392 440.296 130.912C440.116 130.432 440.026 129.898 440.026 129.31V126.79ZM450.459 123.1H453.339V120.04H454.959V123.1H458.829V124.576H454.959V130.444C454.959 130.78 455.061 131.044 455.265 131.236C455.481 131.428 455.769 131.524 456.129 131.524H458.649V133H456.129C455.277 133 454.599 132.766 454.095 132.298C453.591 131.83 453.339 131.212 453.339 130.444V124.576H450.459V123.1ZM465.572 133.18C464.336 133.18 463.364 132.844 462.656 132.172C461.96 131.5 461.612 130.576 461.612 129.4V126.7C461.612 125.524 461.96 124.6 462.656 123.928C463.364 123.256 464.336 122.92 465.572 122.92C466.808 122.92 467.774 123.256 468.47 123.928C469.178 124.6 469.532 125.524 469.532 126.7V128.518H463.232V129.31C463.232 130.066 463.436 130.66 463.844 131.092C464.264 131.524 464.84 131.74 465.572 131.74C466.112 131.74 466.58 131.656 466.976 131.488C467.372 131.32 467.666 131.074 467.858 130.75H469.478C469.274 131.506 468.818 132.1 468.11 132.532C467.414 132.964 466.568 133.18 465.572 133.18ZM467.912 127.168V126.7C467.912 125.956 467.708 125.38 467.3 124.972C466.892 124.564 466.316 124.36 465.572 124.36C464.828 124.36 464.252 124.564 463.844 124.972C463.436 125.38 463.232 125.956 463.232 126.7V127.168H467.912ZM476.095 133.18C475.051 133.18 474.187 132.946 473.503 132.478C472.831 131.998 472.447 131.362 472.351 130.57H474.061C474.133 130.918 474.355 131.2 474.727 131.416C475.099 131.632 475.555 131.74 476.095 131.74H476.599C477.247 131.74 477.751 131.608 478.111 131.344C478.471 131.068 478.651 130.702 478.651 130.246C478.651 129.466 478.099 128.992 476.995 128.824L475.501 128.608C474.529 128.464 473.803 128.158 473.323 127.69C472.843 127.222 472.603 126.568 472.603 125.728C472.603 124.84 472.915 124.15 473.539 123.658C474.175 123.166 475.057 122.92 476.185 122.92H476.689C477.169 122.92 477.613 122.98 478.021 123.1C478.429 123.22 478.789 123.394 479.101 123.622C479.413 123.838 479.665 124.102 479.857 124.414C480.061 124.714 480.193 125.05 480.253 125.422H478.543C478.471 125.11 478.267 124.858 477.931 124.666C477.595 124.462 477.181 124.36 476.689 124.36H476.185C475.573 124.36 475.093 124.48 474.745 124.72C474.409 124.96 474.241 125.32 474.241 125.8C474.241 126.184 474.355 126.478 474.583 126.682C474.823 126.874 475.207 127.006 475.735 127.078L477.229 127.294C478.297 127.45 479.071 127.762 479.551 128.23C480.043 128.698 480.289 129.364 480.289 130.228C480.289 131.152 479.965 131.878 479.317 132.406C478.681 132.922 477.775 133.18 476.599 133.18H476.095Z" fill="white"/>
<path d="M456 105H444C441.8 105 440 103.2 440 101V91C440 88.8 441.8 87 444 87H448L451 91H456C458.2 91 460 92.8 460 95V101C460 103.2 458.2 105 456 105Z" stroke="white" stroke-miterlimit="10" stroke-linecap="round" stroke-linejoin="round"/>
<path d="M454.5 98H445.5" stroke="white" stroke-miterlimit="10" stroke-linecap="round" stroke-linejoin="round"/>
<defs>
<linearGradient id="paint0_linear" x1="450" y1="0" x2="450" y2="193" gradientUnits="userSpaceOnUse">
<stop stop-color="#AA076B"/>
<stop offset="0.880208" stop-color="#61045F" stop-opacity="0.76"/>
</linearGradient>
</defs>
</svg>
